<svg width="167" height="52" viewBox="0 0 167 52" fill="none" xmlns="http://www.w3.org/2000/svg">
<path fill-rule="evenodd" clip-rule="evenodd" d="M39.162 0.965971C39.162 0.432393 39.5945 -0.000156403 40.1281 -0.000156403H59.2091C59.7427 -0.000156403 60.1753 0.432393 60.1753 0.965971V20.1677C60.1753 20.7013 59.7427 21.1339 59.2091 21.1339H52.3255V32.3652C52.3255 32.8988 51.8929 33.3314 51.3593 33.3314C50.8258 33.3314 50.3932 32.8988 50.3932 32.3652L50.3932 21.1339H49.5479V32.2442C49.5479 32.7778 49.1153 33.2103 48.5817 33.2103C48.0482 33.2103 47.6156 32.7778 47.6156 32.2442V21.1339H40.1281C39.5945 21.1339 39.162 20.7013 39.162 20.1677V13.0426C39.162 12.509 39.5945 12.0764 40.1281 12.0764C40.6617 12.0764 41.0942 12.509 41.0942 13.0426V19.2016H48.5664L48.5817 19.2015L48.5971 19.2016H58.243V1.9321H41.0942V9.41958C41.0942 9.95316 40.6617 10.3857 40.1281 10.3857C39.5945 10.3857 39.162 9.95316 39.162 9.41958V0.965971Z" fill="#3C4E67"/>
<path d="M47.4946 15.0955V10.9895M47.4946 10.9895V5.91733C47.4946 5.91733 50.0307 5.91733 50.8761 5.91733C52.2045 5.91733 52.6876 7.36652 52.6876 8.57418C52.6876 9.69917 52.0837 10.9895 50.8761 10.9895C49.6684 10.9895 47.4946 10.9895 47.4946 10.9895Z" stroke="#3C4E67" stroke-width="1.93225" stroke-linecap="round" stroke-linejoin="round"/>
<path d="M17.9073 13.0425C17.9073 13.0425 20.3226 10.5064 23.8248 10.5064C27.327 10.5064 30.2254 13.0425 30.2254 13.0425" stroke="#3C4E67" stroke-width="1.93225" stroke-linecap="round" stroke-linejoin="round"/>
<path d="M21.0472 16.6653C21.0472 16.6653 22.2312 15.4577 23.9479 15.4577C25.6647 15.4577 27.0855 16.6653 27.0855 16.6653" stroke="#3C4E67" stroke-width="1.93225" stroke-linecap="round" stroke-linejoin="round"/>
<path d="M14.2842 9.66106C14.2842 9.66106 18.1203 5.55502 23.6826 5.55502C29.2449 5.55502 33.8483 9.66106 33.8483 9.66106" stroke="#3C4E67" stroke-width="1.93225" stroke-linecap="round" stroke-linejoin="round"/>
<path fill-rule="evenodd" clip-rule="evenodd" d="M53.7075 45.5285C53.7075 47.6628 51.9773 49.393 49.843 49.393C47.7087 49.393 45.9785 47.6628 45.9785 45.5285C45.9785 43.3942 47.7087 41.664 49.843 41.664C51.9773 41.664 53.7075 43.3942 53.7075 45.5285ZM55.6397 45.5285C55.6397 48.7299 53.0444 51.3252 49.843 51.3252C46.6415 51.3252 44.0462 48.7299 44.0462 45.5285C44.0462 42.327 46.6415 39.7317 49.843 39.7317C53.0444 39.7317 55.6397 42.327 55.6397 45.5285ZM50.3954 45.5285C50.3954 45.8334 50.1482 46.0806 49.8433 46.0806C49.5384 46.0806 49.2913 45.8334 49.2913 45.5285C49.2913 45.2236 49.5384 44.9764 49.8433 44.9764C50.1482 44.9764 50.3954 45.2236 50.3954 45.5285ZM52.3277 45.5285C52.3277 46.9006 51.2154 48.0128 49.8433 48.0128C48.4713 48.0128 47.359 46.9006 47.359 45.5285C47.359 44.1565 48.4713 43.0442 49.8433 43.0442C51.2154 43.0442 52.3277 44.1565 52.3277 45.5285Z" fill="#3C4E67"/>
<path d="M15.4247 46.1323H45.0123" stroke="#3C4E67" stroke-width="1.93225" stroke-linecap="round" stroke-linejoin="round"/>
<path fill-rule="evenodd" clip-rule="evenodd" d="M14.5794 45.5285C14.5794 47.6628 12.8492 49.393 10.7149 49.393C8.58054 49.393 6.85035 47.6628 6.85035 45.5285C6.85035 43.3942 8.58054 41.664 10.7149 41.664C12.8492 41.664 14.5794 43.3942 14.5794 45.5285ZM16.5116 45.5285C16.5116 48.7299 13.9163 51.3252 10.7149 51.3252C7.51339 51.3252 4.91809 48.7299 4.91809 45.5285C4.91809 42.327 7.51339 39.7317 10.7149 39.7317C13.9163 39.7317 16.5116 42.327 16.5116 45.5285ZM11.2667 45.5285C11.2667 45.8334 11.0195 46.0806 10.7146 46.0806C10.4097 46.0806 10.1625 45.8334 10.1625 45.5285C10.1625 45.2236 10.4097 44.9764 10.7146 44.9764C11.0195 44.9764 11.2667 45.2236 11.2667 45.5285ZM13.1989 45.5285C13.1989 46.9006 12.0867 48.0128 10.7146 48.0128C9.34255 48.0128 8.23028 46.9006 8.23028 45.5285C8.23028 44.1565 9.34255 43.0442 10.7146 43.0442C12.0867 43.0442 13.1989 44.1565 13.1989 45.5285Z" fill="#3C4E67"/>
<path d="M5.88432 45.8907C5.88432 45.8907 2.26134 44.9246 1.05367 43.2339C0.932914 40.094 1.05366 35.7464 1.05367 33.8142C1.05369 31.3989 3.01568 31.5175 5.64276 30.7951C10.4734 29.4667 12.4057 24.636 17.2363 24.636C22.7543 24.6359 24.1199 24.636 30.7621 24.636C36.5661 24.6359 39.3381 29.7748 45.0124 31.7612C49.3965 33.2959 48.7562 32.7273 54.7945 34.0557C60.229 35.6257 59.3836 40.9394 59.3836 42.9924C59.3836 45.0454 57.5721 46.1323 57.5721 46.1323H54.7945" stroke="#3C4E67" stroke-width="1.93225" stroke-linecap="round" stroke-linejoin="round"/>
<path d="M17.9611 35.8673H41.0273C45.7372 35.8673 32.936 27.776 29.7961 27.776C24.724 27.776 22.7917 27.8967 17.9611 27.8967C14.7004 27.8967 4.19373 35.8673 8.90358 35.8673H13.0097" stroke="#3C4E67" stroke-width="1.93225" stroke-linecap="round" stroke-linejoin="round"/>
<path d="M21.9461 28.0174V35.5049" stroke="#3C4E67" stroke-width="1.93225" stroke-linecap="round" stroke-linejoin="round"/>
<path d="M22.067 38.8863H25.2069" stroke="#3C4E67" stroke-width="1.93225" stroke-linecap="round" stroke-linejoin="round"/>
<path d="M77.3971 36.7664C74.9817 36.7664 73.0893 36.1008 71.7199 34.7694C70.3505 33.4381 69.6658 31.6122 69.6658 29.2919C69.6658 27.7894 69.9606 26.4771 70.5502 25.355C71.1398 24.2328 71.9576 23.3579 73.0037 22.7303C74.0688 22.1027 75.305 21.7889 76.7124 21.7889C78.1008 21.7889 79.261 22.0837 80.1929 22.6733C81.1248 23.2629 81.8286 24.0902 82.304 25.1553C82.7985 26.2203 83.0458 27.4661 83.0458 28.8925V29.834H72.5472V27.9511H80.5067L80.0217 28.3505C80.0217 27.0191 79.7365 26.0016 79.1659 25.2979C78.6143 24.5942 77.806 24.2423 76.7409 24.2423C75.5618 24.2423 74.6488 24.6608 74.0022 25.4976C73.3746 26.3344 73.0607 27.5041 73.0607 29.0066V29.3775C73.0607 30.9371 73.4411 32.1067 74.2019 32.8865C74.9817 33.6473 76.0753 34.0277 77.4827 34.0277C78.3005 34.0277 79.0613 33.9231 79.765 33.7139C80.4877 33.4856 81.1724 33.1243 81.819 32.6298L82.8746 35.0262C82.1899 35.5777 81.3721 36.0057 80.4211 36.31C79.4702 36.6143 78.4622 36.7664 77.3971 36.7664ZM86.1559 36.4811V34.1418L95.1709 23.9V24.7559H86.1559V22.0742H98.3947V24.4135L89.294 34.7409L89.2655 33.7994H98.7085V36.4811H86.1559ZM102.599 42.6433V25.6688C102.599 25.0792 102.58 24.4801 102.542 23.8715C102.504 23.2629 102.447 22.6638 102.371 22.0742H105.823L106.136 25.0982H105.823C106.108 24.0902 106.707 23.2914 107.62 22.7018C108.552 22.0932 109.626 21.7889 110.844 21.7889C112.118 21.7889 113.231 22.0932 114.181 22.7018C115.132 23.2914 115.874 24.1472 116.407 25.2694C116.939 26.3725 117.206 27.7038 117.206 29.2634C117.206 30.823 116.939 32.1638 116.407 33.2859C115.874 34.4081 115.132 35.2734 114.181 35.882C113.231 36.4716 112.118 36.7664 110.844 36.7664C109.645 36.7664 108.59 36.4716 107.677 35.882C106.764 35.2924 106.155 34.5032 105.851 33.5142H106.165V42.6433H102.599ZM109.845 34.0277C110.986 34.0277 111.899 33.6378 112.584 32.858C113.269 32.0592 113.611 30.861 113.611 29.2634C113.611 27.6658 113.269 26.4771 112.584 25.6973C111.899 24.9175 110.986 24.5276 109.845 24.5276C108.723 24.5276 107.82 24.9175 107.135 25.6973C106.45 26.4771 106.108 27.6658 106.108 29.2634C106.108 30.861 106.45 32.0592 107.135 32.858C107.82 33.6378 108.723 34.0277 109.845 34.0277ZM126.709 36.7664C125.454 36.7664 124.351 36.4716 123.4 35.882C122.449 35.2734 121.707 34.4081 121.174 33.2859C120.642 32.1638 120.376 30.823 120.376 29.2634C120.376 27.7038 120.642 26.3725 121.174 25.2694C121.707 24.1472 122.449 23.2914 123.4 22.7018C124.351 22.0932 125.454 21.7889 126.709 21.7889C127.926 21.7889 128.991 22.0932 129.904 22.7018C130.836 23.2914 131.454 24.0902 131.758 25.0982H131.445L131.758 22.0742H135.182C135.125 22.6638 135.068 23.2629 135.011 23.8715C134.973 24.4801 134.954 25.0792 134.954 25.6688V36.4811H131.416L131.388 33.5142H131.73C131.426 34.5032 130.808 35.2924 129.876 35.882C128.944 36.4716 127.888 36.7664 126.709 36.7664ZM127.707 34.0277C128.83 34.0277 129.733 33.6378 130.418 32.858C131.102 32.0592 131.445 30.861 131.445 29.2634C131.445 27.6658 131.102 26.4771 130.418 25.6973C129.733 24.9175 128.83 24.5276 127.707 24.5276C126.585 24.5276 125.682 24.9175 124.997 25.6973C124.313 26.4771 123.97 27.6658 123.97 29.2634C123.97 30.861 124.303 32.0592 124.969 32.858C125.653 33.6378 126.566 34.0277 127.707 34.0277ZM139.664 36.4811V25.7544C139.664 25.1457 139.645 24.5276 139.607 23.9C139.588 23.2724 139.541 22.6638 139.465 22.0742H142.917L143.316 26.0111H142.745C142.936 25.0602 143.249 24.2709 143.687 23.6432C144.143 23.0156 144.695 22.5496 145.341 22.2453C145.988 21.941 146.692 21.7889 147.453 21.7889C147.795 21.7889 148.071 21.8079 148.28 21.8459C148.489 21.8649 148.698 21.9125 148.908 21.9886L148.879 25.1267C148.518 24.9746 148.204 24.8795 147.938 24.8414C147.69 24.8034 147.377 24.7844 146.996 24.7844C146.178 24.7844 145.484 24.9556 144.914 25.2979C144.362 25.6402 143.944 26.1157 143.658 26.7243C143.392 27.3329 143.259 28.0271 143.259 28.8069V36.4811H139.664ZM151.748 36.4811V15.484H155.314V28.2078H155.372L161.22 22.0742H165.528L158.253 29.6913L158.281 28.2649L166.041 36.4811H161.619L155.372 30.0337H155.314V36.4811H151.748Z" fill="#EF6C42"/>
</svg>
