<svg width="283" height="467" viewBox="0 0 283 467" fill="none" xmlns="http://www.w3.org/2000/svg">
<path d="M168.517 0H21.953C9.8287 0 0 9.82869 0 21.953V366.49C0 378.614 9.8287 388.443 21.953 388.443H168.517C180.641 388.443 190.47 378.614 190.47 366.49V21.953C190.47 9.82869 180.641 0 168.517 0Z" fill="#292A2E"/>
<path d="M168.448 6.85498H22.023C13.6973 6.85498 6.948 13.6043 6.948 21.93V366C6.948 374.326 13.6973 381.075 22.023 381.075H168.448C176.774 381.075 183.523 374.326 183.523 366V21.93C183.523 13.6043 176.774 6.85498 168.448 6.85498Z" fill="white"/>
<path d="M59.072 4.021H131.399V11.505C131.399 12.5678 131.19 13.6202 130.783 14.6021C130.376 15.5839 129.78 16.4761 129.029 17.2276C128.277 17.9791 127.385 18.5752 126.403 18.982C125.421 19.3887 124.369 19.598 123.306 19.598H67.165C65.0186 19.598 62.9601 18.7453 61.4424 17.2276C59.9247 15.7099 59.072 13.6514 59.072 11.505V4.021Z" fill="#292A2E"/>
<path opacity="0.8" d="M136.646 266.336H59.419C54.8688 266.336 51.1801 270.025 51.1801 274.575V296.699C51.1801 301.249 54.8688 304.938 59.419 304.938H136.646C141.196 304.938 144.885 301.249 144.885 296.699V274.575C144.885 270.025 141.196 266.336 136.646 266.336Z" fill="#324156"/>
<path d="M92.8841 297.041C92.5611 297.041 92.2488 296.926 92.0041 296.715L83.1641 289.14C82.9016 288.903 82.742 288.573 82.7193 288.221C82.6967 287.868 82.8127 287.52 83.0427 287.252C83.2727 286.983 83.5985 286.816 83.9505 286.784C84.3025 286.752 84.653 286.86 84.9271 287.083L92.7701 293.806L111.021 273.837C111.141 273.706 111.286 273.599 111.447 273.524C111.608 273.448 111.782 273.405 111.96 273.397C112.137 273.389 112.315 273.416 112.482 273.477C112.649 273.537 112.803 273.63 112.934 273.75C113.065 273.87 113.172 274.014 113.247 274.175C113.323 274.336 113.366 274.511 113.374 274.688C113.382 274.866 113.355 275.043 113.294 275.211C113.234 275.378 113.141 275.532 113.021 275.663L93.8841 296.6C93.7574 296.739 93.603 296.85 93.4307 296.926C93.2585 297.002 93.0723 297.041 92.8841 297.041Z" fill="white"/>
<path d="M117.191 374.483C116.104 373.24 115.281 371.788 114.773 370.216C114.266 368.645 114.084 366.986 114.238 365.342C114.393 363.697 114.881 362.102 115.672 360.652C116.464 359.202 117.542 357.929 118.842 356.91C124.017 352.841 131.612 354.037 135.942 358.992L142.16 366.706L122.64 296.806C121.784 293.877 122.105 290.73 123.534 288.034C124.963 285.338 127.388 283.305 130.292 282.369C131.752 281.932 133.284 281.79 134.8 281.951C136.315 282.113 137.783 282.575 139.118 283.311C140.453 284.046 141.628 285.04 142.574 286.235C143.52 287.43 144.219 288.801 144.629 290.269L152.8 319.527C152.872 319.48 152.95 319.441 153.031 319.412C152.81 316.221 153.854 313.071 155.937 310.644C158.021 308.217 160.976 306.708 164.164 306.443C166.953 306.245 169.727 307.002 172.029 308.59C174.33 310.178 176.023 312.503 176.827 315.181L178.127 319.288C178.267 319.305 178.403 319.349 178.527 319.416C178.304 316.544 179.109 313.687 180.798 311.354C182.487 309.021 184.95 307.364 187.748 306.679C190.812 306.001 194.02 306.506 196.728 308.093C199.435 309.681 201.443 312.233 202.348 315.238L205.494 325.206C205.553 325.03 205.656 324.871 205.792 324.744C205.928 324.617 206.093 324.526 206.273 324.479C206.478 324.433 206.693 324.446 206.891 324.517C207.384 321.976 208.677 319.659 210.581 317.906C212.485 316.152 214.9 315.053 217.473 314.77C223.313 314.088 228.727 318.031 230.496 323.638L247.217 376.293C250.888 387.924 251.001 400.386 247.543 412.081C244.085 423.777 237.213 434.173 227.808 441.938C219.707 448.626 209.313 451.884 198.844 451.016C188.375 450.149 178.66 445.225 171.77 437.295L117.191 374.483Z" fill="#E98862"/>
<g opacity="0.2">
<path d="M162.177 349.088C162.189 348.954 162.178 348.818 162.143 348.688L154.534 320.175C154.498 320.027 154.433 319.888 154.342 319.766C154.251 319.644 154.137 319.541 154.006 319.463C153.876 319.385 153.73 319.335 153.58 319.314C153.429 319.293 153.276 319.303 153.129 319.342C152.982 319.381 152.844 319.45 152.724 319.543C152.603 319.636 152.503 319.752 152.428 319.885C152.353 320.017 152.306 320.163 152.288 320.315C152.271 320.466 152.284 320.619 152.326 320.765L159.934 349.278C160.003 349.537 160.161 349.764 160.38 349.919C160.6 350.073 160.867 350.145 161.134 350.123C161.402 350.1 161.652 349.984 161.843 349.795C162.033 349.605 162.151 349.355 162.175 349.088H162.177Z" fill="#0C0C0C"/>
<path d="M185.282 342.893C185.294 342.756 185.282 342.617 185.245 342.484L179.091 320.121C179.002 319.839 178.807 319.603 178.547 319.462C178.287 319.321 177.983 319.286 177.698 319.365C177.413 319.443 177.17 319.629 177.019 319.884C176.869 320.138 176.823 320.441 176.891 320.729L183.045 343.093C183.117 343.35 183.276 343.574 183.496 343.726C183.716 343.878 183.982 343.948 184.248 343.924C184.514 343.901 184.763 343.785 184.952 343.596C185.142 343.408 185.259 343.159 185.284 342.893H185.282Z" fill="#0C0C0C"/>
<path d="M210.344 336.325C210.356 336.197 210.346 336.069 210.314 335.944L207.656 325.315C207.583 325.021 207.396 324.769 207.136 324.613C206.877 324.457 206.566 324.411 206.272 324.484C205.978 324.558 205.726 324.745 205.57 325.004C205.414 325.264 205.368 325.574 205.441 325.868L208.099 336.497C208.164 336.759 208.32 336.989 208.539 337.146C208.758 337.304 209.025 337.379 209.294 337.359C209.563 337.338 209.816 337.223 210.008 337.034C210.2 336.845 210.319 336.594 210.344 336.325Z" fill="#0C0C0C"/>
</g>
<path d="M146.864 423.254L261.664 387.005C264.205 386.202 266.961 386.438 269.329 387.661C271.697 388.885 273.484 390.995 274.301 393.532L282.521 419.072C282.931 420.348 283.084 421.692 282.969 423.027C282.854 424.362 282.474 425.661 281.851 426.847C281.229 428.034 280.376 429.085 279.343 429.938C278.31 430.791 277.117 431.43 275.834 431.817L161.879 466.204C159.439 466.94 156.811 466.726 154.523 465.603C152.235 464.481 150.457 462.534 149.546 460.154L140.482 436.473C139.991 435.189 139.768 433.818 139.826 432.445C139.884 431.071 140.222 429.724 140.82 428.486C141.418 427.248 142.262 426.145 143.302 425.246C144.341 424.346 145.553 423.668 146.864 423.254Z" fill="#324156"/>
<path opacity="0.18" d="M146.864 423.254L261.664 387.005C264.205 386.202 266.961 386.438 269.329 387.661C271.697 388.885 273.484 390.995 274.301 393.532L282.521 419.072C282.931 420.348 283.084 421.692 282.969 423.027C282.854 424.362 282.474 425.661 281.851 426.847C281.229 428.034 280.376 429.085 279.343 429.938C278.31 430.791 277.117 431.43 275.834 431.817L161.879 466.204C159.439 466.94 156.811 466.726 154.523 465.603C152.235 464.481 150.457 462.534 149.546 460.154L140.482 436.473C139.991 435.189 139.768 433.818 139.826 432.445C139.884 431.071 140.222 429.724 140.82 428.486C141.418 427.248 142.262 426.145 143.302 425.246C144.341 424.346 145.553 423.668 146.864 423.254Z" fill="white"/>
<path d="M94.6887 239.377C129.863 239.377 158.377 210.863 158.377 175.689C158.377 140.514 129.863 112 94.6887 112C59.5144 112 31 140.514 31 175.689C31 210.863 59.5144 239.377 94.6887 239.377Z" fill="#3C4E67"/>
<path opacity="0.86" d="M94.6887 239.377C129.863 239.377 158.377 210.863 158.377 175.689C158.377 140.514 129.863 112 94.6887 112C59.5144 112 31 140.514 31 175.689C31 210.863 59.5144 239.377 94.6887 239.377Z" fill="white"/>
<path opacity="0.1" d="M61.1601 176.668L74.4361 195.564L52.2387 199.257L44.8041 189.225L61.1601 176.668Z" fill="#3C4E67"/>
<path opacity="0.1" d="M146.657 147.61L137.735 140.182L127.822 154.21L130.923 157.798L146.657 147.61Z" fill="#3C4E67"/>
<path opacity="0.1" d="M55.4603 154.21L63.6642 148.085L70.5835 159.329L62.5996 163.523L55.4603 154.21Z" fill="#3C4E67"/>
<path opacity="0.1" d="M103.877 222.129L113.318 214.447L119.149 222.129L108.635 229.316L103.877 222.129Z" fill="#3C4E67"/>
<path opacity="0.1" d="M66.0798 166.619L74.6472 160.359L81.4808 169.345L77.7637 173.141L83.3003 180.284L88.4197 176.668L94.3848 184.214L83.3003 192.392L66.0798 166.619Z" fill="#3C4E67"/>
<path d="M158.283 179.167L126.377 200.769L141.074 219.329C140.637 219.796 140.193 220.255 139.74 220.706L124.826 201.871L98.9116 221.189L110.389 237.427C109.728 237.596 109.063 237.753 108.394 237.898L96.8259 221.529L80.5942 198.895L52.1777 204.62L54.4513 225.057C53.7335 224.472 53.0299 223.872 52.3403 223.256L50.2271 204.259L31.3546 182.427C31.2406 181.367 31.1547 180.299 31.097 179.224L51.4937 202.821L79.3783 197.202L40.2414 142.63C40.596 142.045 40.9605 141.466 41.3349 140.894L81.4211 196.79L81.6406 196.746L110.883 176.169L90.1692 149.279L93.1605 112.02C93.6692 112.007 94.1787 112.001 94.6889 112.001C94.8155 112.001 94.9422 112.001 95.0689 112.003L92.1219 148.701L112.438 175.074L151.765 147.403C152.052 147.977 152.329 148.557 152.596 149.142L82.58 198.407L97.809 219.642L125.17 199.246L125.195 199.277L158.366 176.818C158.353 177.605 158.326 178.386 158.283 179.167Z" fill="white"/>
<path d="M93.1008 83C77.0002 83 64 96.0138 64 112.065C64 117.112 65.9159 122.798 67.5505 125.999C72.9163 136.514 92.7774 165.915 92.7774 165.915C92.811 165.971 92.8586 166.017 92.9155 166.05C92.9724 166.082 93.0367 166.099 93.1021 166.099C93.1676 166.099 93.2319 166.082 93.2888 166.05C93.3457 166.017 93.3932 165.971 93.4268 165.915C93.4268 165.915 113.288 136.514 118.654 125.999C120.288 122.797 122.204 117.112 122.204 112.065C122.204 96.0131 109.204 83 93.1033 83H93.1008Z" fill="#F28461"/>
<path d="M92.4756 87.5582C92.6845 87.553 92.8913 87.5582 93.1014 87.5582C96.328 87.5583 99.5224 88.1996 102.499 89.445C105.475 90.6904 108.175 92.515 110.44 94.8127C112.705 97.1105 114.491 99.8355 115.694 102.83C116.897 105.824 117.493 109.027 117.447 112.253C117.263 125.366 106.561 136.069 93.4474 136.251C87.0241 136.326 80.8313 133.86 76.2178 129.39C71.6042 124.921 68.9436 118.809 68.8154 112.387C68.6872 105.964 71.1018 99.7512 75.5334 95.1008C79.9649 90.4505 86.0544 87.7395 92.4756 87.5582Z" fill="white"/>
<path fill-rule="evenodd" clip-rule="evenodd" d="M98.2565 96.5128C98.2565 96.2296 98.4861 96 98.7693 96H108.898C109.181 96 109.41 96.2296 109.41 96.5128V106.705C109.41 106.988 109.181 107.218 108.898 107.218H105.244L105.244 113.179C105.244 113.463 105.014 113.692 104.731 113.692C104.448 113.692 104.218 113.463 104.218 113.179V107.218H103.769V113.115C103.769 113.399 103.54 113.628 103.256 113.628C102.973 113.628 102.744 113.399 102.744 113.115V107.218H98.7693C98.4861 107.218 98.2565 106.988 98.2565 106.705V102.923C98.2565 102.64 98.4861 102.41 98.7693 102.41C99.0525 102.41 99.2821 102.64 99.2821 102.923V106.192H103.246L103.256 106.192L103.267 106.192H108.385V97.0257H99.2821V101C99.2821 101.283 99.0525 101.513 98.7693 101.513C98.4861 101.513 98.2565 101.283 98.2565 101V96.5128Z" fill="#3C4E67"/>
<path d="M102.68 104.013V101.833M102.68 101.833V99.1411C102.68 99.1411 104.026 99.1411 104.475 99.1411C105.18 99.1411 105.436 99.9104 105.436 100.551C105.436 101.149 105.116 101.833 104.475 101.833C103.834 101.833 102.68 101.833 102.68 101.833Z" stroke="#3C4E67" stroke-width="1.02565" stroke-linecap="round" stroke-linejoin="round"/>
<path d="M86.9745 102.923C86.9745 102.923 88.2566 101.577 90.1155 101.577C91.9745 101.577 93.513 102.923 93.513 102.923" stroke="#3C4E67" stroke-width="1.02565" stroke-linecap="round" stroke-linejoin="round"/>
<path d="M88.6411 104.846C88.6411 104.846 89.2696 104.205 90.1808 104.205C91.0921 104.205 91.8463 104.846 91.8463 104.846" stroke="#3C4E67" stroke-width="1.02565" stroke-linecap="round" stroke-linejoin="round"/>
<path d="M85.0513 101.128C85.0513 101.128 87.0875 98.9487 90.04 98.9487C92.9925 98.9487 95.436 101.128 95.436 101.128" stroke="#3C4E67" stroke-width="1.02565" stroke-linecap="round" stroke-linejoin="round"/>
<path fill-rule="evenodd" clip-rule="evenodd" d="M105.977 120.167C105.977 121.3 105.059 122.218 103.926 122.218C102.793 122.218 101.875 121.3 101.875 120.167C101.875 119.034 102.793 118.115 103.926 118.115C105.059 118.115 105.977 119.034 105.977 120.167ZM107.003 120.167C107.003 121.866 105.625 123.244 103.926 123.244C102.227 123.244 100.849 121.866 100.849 120.167C100.849 118.467 102.227 117.09 103.926 117.09C105.625 117.09 107.003 118.467 107.003 120.167ZM104.219 120.167C104.219 120.329 104.088 120.46 103.926 120.46C103.764 120.46 103.633 120.329 103.633 120.167C103.633 120.005 103.764 119.874 103.926 119.874C104.088 119.874 104.219 120.005 104.219 120.167ZM105.245 120.167C105.245 120.895 104.654 121.486 103.926 121.486C103.198 121.486 102.607 120.895 102.607 120.167C102.607 119.439 103.198 118.848 103.926 118.848C104.654 118.848 105.245 119.439 105.245 120.167Z" fill="#3C4E67"/>
<path d="M85.6569 120.487H101.362" stroke="#3C4E67" stroke-width="1.02565" stroke-linecap="round" stroke-linejoin="round"/>
<path fill-rule="evenodd" clip-rule="evenodd" d="M85.2081 120.167C85.2081 121.3 84.2897 122.218 83.1568 122.218C82.0239 122.218 81.1055 121.3 81.1055 120.167C81.1055 119.034 82.0239 118.115 83.1568 118.115C84.2897 118.115 85.2081 119.034 85.2081 120.167ZM86.2337 120.167C86.2337 121.866 84.8561 123.244 83.1568 123.244C81.4574 123.244 80.0798 121.866 80.0798 120.167C80.0798 118.467 81.4574 117.09 83.1568 117.09C84.8561 117.09 86.2337 118.467 86.2337 120.167ZM83.4497 120.167C83.4497 120.329 83.3185 120.46 83.1567 120.46C82.9948 120.46 82.8636 120.329 82.8636 120.167C82.8636 120.005 82.9948 119.874 83.1567 119.874C83.3185 119.874 83.4497 120.005 83.4497 120.167ZM84.4754 120.167C84.4754 120.895 83.885 121.486 83.1567 121.486C82.4284 121.486 81.838 120.895 81.838 120.167C81.838 119.439 82.4284 118.848 83.1567 118.848C83.885 118.848 84.4754 119.439 84.4754 120.167Z" fill="#3C4E67"/>
<path d="M80.5926 120.359C80.5926 120.359 78.6695 119.846 78.0285 118.949C77.9644 117.282 78.0285 114.975 78.0285 113.949C78.0285 112.667 79.0699 112.73 80.4644 112.346C83.0285 111.641 84.0542 109.077 86.6183 109.077C89.5473 109.077 90.2722 109.077 93.7979 109.077C96.8786 109.077 98.35 111.805 101.362 112.859C103.689 113.674 103.349 113.372 106.554 114.077C109.439 114.911 108.99 117.731 108.99 118.821C108.99 119.911 108.029 120.488 108.029 120.488H106.554" stroke="#3C4E67" stroke-width="1.02565" stroke-linecap="round" stroke-linejoin="round"/>
<path d="M87.0029 115.039H99.2466C101.747 115.039 94.9517 110.744 93.2851 110.744C90.5927 110.744 89.5671 110.808 87.0029 110.808C85.2721 110.808 79.6952 115.039 82.1952 115.039H84.3747" stroke="#3C4E67" stroke-width="1.02565" stroke-linecap="round" stroke-linejoin="round"/>
<path d="M89.1183 110.872V114.846" stroke="#3C4E67" stroke-width="1.02565" stroke-linecap="round" stroke-linejoin="round"/>
<path d="M89.1824 116.641H90.8491" stroke="#3C4E67" stroke-width="1.02565" stroke-linecap="round" stroke-linejoin="round"/>
</svg>
