<svg width="167" height="52" viewBox="0 0 167 52" fill="none" xmlns="http://www.w3.org/2000/svg">
<path fill-rule="evenodd" clip-rule="evenodd" d="M39.1619 0.965796C39.1619 0.432219 39.5944 -0.000331223 40.128 -0.000331223H59.209C59.7426 -0.000331223 60.1751 0.432219 60.1751 0.965796V20.1676C60.1751 20.7012 59.7426 21.1337 59.209 21.1337H52.3253V32.3651C52.3253 32.8986 51.8928 33.3312 51.3592 33.3312C50.8256 33.3312 50.3931 32.8986 50.3931 32.3651L50.3931 21.1337H49.5478V32.244C49.5478 32.7776 49.1152 33.2102 48.5816 33.2102C48.048 33.2102 47.6155 32.7776 47.6155 32.244V21.1337H40.128C39.5944 21.1337 39.1619 20.7012 39.1619 20.1676V13.0424C39.1619 12.5088 39.5944 12.0763 40.128 12.0763C40.6616 12.0763 41.0941 12.5088 41.0941 13.0424V19.2014H48.5662L48.5816 19.2013L48.597 19.2014H58.2429V1.93192H41.0941V9.41941C41.0941 9.95299 40.6616 10.3855 40.128 10.3855C39.5944 10.3855 39.1619 9.95299 39.1619 9.41941V0.965796Z" fill="white"/>
<path d="M47.4946 15.0955V10.9895M47.4946 10.9895V5.91733C47.4946 5.91733 50.0307 5.91733 50.8761 5.91733C52.2045 5.91733 52.6876 7.36652 52.6876 8.57418C52.6876 9.69917 52.0837 10.9895 50.8761 10.9895C49.6684 10.9895 47.4946 10.9895 47.4946 10.9895Z" stroke="white" stroke-width="1.93225" stroke-linecap="round" stroke-linejoin="round"/>
<path d="M17.9072 13.0425C17.9072 13.0425 20.3225 10.5064 23.8248 10.5064C27.327 10.5064 30.2253 13.0425 30.2253 13.0425" stroke="white" stroke-width="1.93225" stroke-linecap="round" stroke-linejoin="round"/>
<path d="M21.0472 16.6653C21.0472 16.6653 22.2312 15.4576 23.948 15.4576C25.6648 15.4576 27.0855 16.6653 27.0855 16.6653" stroke="white" stroke-width="1.93225" stroke-linecap="round" stroke-linejoin="round"/>
<path d="M14.2842 9.66106C14.2842 9.66106 18.1203 5.55502 23.6826 5.55502C29.2449 5.55502 33.8483 9.66106 33.8483 9.66106" stroke="white" stroke-width="1.93225" stroke-linecap="round" stroke-linejoin="round"/>
<path fill-rule="evenodd" clip-rule="evenodd" d="M53.7075 45.5285C53.7075 47.6628 51.9773 49.393 49.843 49.393C47.7087 49.393 45.9785 47.6628 45.9785 45.5285C45.9785 43.3941 47.7087 41.6639 49.843 41.6639C51.9773 41.6639 53.7075 43.3941 53.7075 45.5285ZM55.6398 45.5285C55.6398 48.7299 53.0445 51.3252 49.843 51.3252C46.6416 51.3252 44.0463 48.7299 44.0463 45.5285C44.0463 42.327 46.6416 39.7317 49.843 39.7317C53.0445 39.7317 55.6398 42.327 55.6398 45.5285ZM50.3955 45.5285C50.3955 45.8334 50.1483 46.0806 49.8434 46.0806C49.5385 46.0806 49.2913 45.8334 49.2913 45.5285C49.2913 45.2236 49.5385 44.9764 49.8434 44.9764C50.1483 44.9764 50.3955 45.2236 50.3955 45.5285ZM52.3277 45.5285C52.3277 46.9006 51.2155 48.0128 49.8434 48.0128C48.4713 48.0128 47.3591 46.9006 47.3591 45.5285C47.3591 44.1564 48.4713 43.0442 49.8434 43.0442C51.2155 43.0442 52.3277 44.1564 52.3277 45.5285Z" fill="white"/>
<path d="M15.4247 46.1323H45.0123" stroke="white" stroke-width="1.93225" stroke-linecap="round" stroke-linejoin="round"/>
<path fill-rule="evenodd" clip-rule="evenodd" d="M14.5794 45.5285C14.5794 47.6628 12.8492 49.393 10.7149 49.393C8.58054 49.393 6.85035 47.6628 6.85035 45.5285C6.85035 43.3941 8.58054 41.6639 10.7149 41.6639C12.8492 41.6639 14.5794 43.3941 14.5794 45.5285ZM16.5116 45.5285C16.5116 48.7299 13.9163 51.3252 10.7149 51.3252C7.51339 51.3252 4.91809 48.7299 4.91809 45.5285C4.91809 42.327 7.51339 39.7317 10.7149 39.7317C13.9163 39.7317 16.5116 42.327 16.5116 45.5285ZM11.2667 45.5285C11.2667 45.8334 11.0195 46.0806 10.7146 46.0806C10.4097 46.0806 10.1625 45.8334 10.1625 45.5285C10.1625 45.2236 10.4097 44.9764 10.7146 44.9764C11.0195 44.9764 11.2667 45.2236 11.2667 45.5285ZM13.1989 45.5285C13.1989 46.9006 12.0867 48.0128 10.7146 48.0128C9.34255 48.0128 8.23028 46.9006 8.23028 45.5285C8.23028 44.1564 9.34255 43.0442 10.7146 43.0442C12.0867 43.0442 13.1989 44.1564 13.1989 45.5285Z" fill="white"/>
<path d="M5.88432 45.8908C5.88432 45.8908 2.26134 44.9246 1.05367 43.2339C0.932914 40.094 1.05366 35.7464 1.05367 33.8142C1.05369 31.3989 3.01568 31.5175 5.64276 30.7951C10.4734 29.4667 12.4057 24.636 17.2363 24.636C22.7543 24.6359 24.1199 24.636 30.7621 24.636C36.5661 24.6359 39.3381 29.7748 45.0124 31.7612C49.3965 33.2959 48.7562 32.7273 54.7945 34.0558C60.229 35.6257 59.3836 40.9394 59.3836 42.9924C59.3836 45.0454 57.5721 46.1323 57.5721 46.1323H54.7945" stroke="white" stroke-width="1.93225" stroke-linecap="round" stroke-linejoin="round"/>
<path d="M17.961 35.8673H41.0273C45.7371 35.8673 32.936 27.776 29.7961 27.776C24.7239 27.776 22.7916 27.8967 17.961 27.8967C14.7003 27.8967 4.19367 35.8673 8.90352 35.8673H13.0096" stroke="white" stroke-width="1.93225" stroke-linecap="round" stroke-linejoin="round"/>
<path d="M21.946 28.0174V35.5049" stroke="white" stroke-width="1.93225" stroke-linecap="round" stroke-linejoin="round"/>
<path d="M22.067 38.8863H25.2069" stroke="white" stroke-width="1.93225" stroke-linecap="round" stroke-linejoin="round"/>
<path d="M77.397 36.7665C74.9816 36.7665 73.0892 36.1008 71.7198 34.7695C70.3505 33.4381 69.6658 31.6123 69.6658 29.292C69.6658 27.7895 69.9606 26.4771 70.5502 25.355C71.1398 24.2329 71.9576 23.358 73.0036 22.7304C74.0687 22.1027 75.3049 21.7889 76.7124 21.7889C78.1007 21.7889 79.2609 22.0837 80.1929 22.6733C81.1248 23.2629 81.8285 24.0902 82.304 25.1553C82.7985 26.2204 83.0457 27.4661 83.0457 28.8926V29.834H72.5472V27.9511H80.5067L80.0217 28.3505C80.0217 27.0192 79.7364 26.0017 79.1658 25.298C78.6143 24.5943 77.806 24.2424 76.7409 24.2424C75.5617 24.2424 74.6488 24.6608 74.0021 25.4977C73.3745 26.3345 73.0607 27.5042 73.0607 29.0067V29.3776C73.0607 30.9371 73.4411 32.1068 74.2018 32.8866C74.9816 33.6474 76.0752 34.0277 77.4826 34.0277C78.3004 34.0277 79.0612 33.9231 79.7649 33.7139C80.4876 33.4857 81.1723 33.1243 81.819 32.6298L82.8745 35.0262C82.1899 35.5778 81.372 36.0057 80.4211 36.31C79.4701 36.6143 78.4621 36.7665 77.397 36.7665ZM86.1558 36.4812V34.1418L95.1709 23.9001V24.7559H86.1558V22.0742H98.3946V24.4136L89.2939 34.741L89.2654 33.7995H98.7084V36.4812H86.1558ZM102.599 42.6434V25.6688C102.599 25.0792 102.58 24.4801 102.542 23.8715C102.504 23.2629 102.447 22.6638 102.371 22.0742H105.823L106.136 25.0983H105.823C106.108 24.0902 106.707 23.2914 107.62 22.7019C108.552 22.0932 109.626 21.7889 110.844 21.7889C112.118 21.7889 113.23 22.0932 114.181 22.7019C115.132 23.2914 115.874 24.1473 116.407 25.2694C116.939 26.3725 117.205 27.7039 117.205 29.2634C117.205 30.823 116.939 32.1639 116.407 33.286C115.874 34.4081 115.132 35.2735 114.181 35.8821C113.23 36.4717 112.118 36.7665 110.844 36.7665C109.645 36.7665 108.59 36.4717 107.677 35.8821C106.764 35.2925 106.155 34.5032 105.851 33.5142H106.165V42.6434H102.599ZM109.845 34.0277C110.986 34.0277 111.899 33.6378 112.584 32.8581C113.269 32.0593 113.611 30.8611 113.611 29.2634C113.611 27.6658 113.269 26.4771 112.584 25.6974C111.899 24.9176 110.986 24.5277 109.845 24.5277C108.723 24.5277 107.82 24.9176 107.135 25.6974C106.45 26.4771 106.108 27.6658 106.108 29.2634C106.108 30.8611 106.45 32.0593 107.135 32.8581C107.82 33.6378 108.723 34.0277 109.845 34.0277ZM126.709 36.7665C125.454 36.7665 124.35 36.4717 123.4 35.8821C122.449 35.2735 121.707 34.4081 121.174 33.286C120.642 32.1639 120.375 30.823 120.375 29.2634C120.375 27.7039 120.642 26.3725 121.174 25.2694C121.707 24.1473 122.449 23.2914 123.4 22.7019C124.35 22.0932 125.454 21.7889 126.709 21.7889C127.926 21.7889 128.991 22.0932 129.904 22.7019C130.836 23.2914 131.454 24.0902 131.758 25.0983H131.445L131.758 22.0742H135.182C135.125 22.6638 135.068 23.2629 135.011 23.8715C134.973 24.4801 134.954 25.0792 134.954 25.6688V36.4812H131.416L131.388 33.5142H131.73C131.426 34.5032 130.807 35.2925 129.876 35.8821C128.944 36.4717 127.888 36.7665 126.709 36.7665ZM127.707 34.0277C128.829 34.0277 129.733 33.6378 130.418 32.8581C131.102 32.0593 131.445 30.8611 131.445 29.2634C131.445 27.6658 131.102 26.4771 130.418 25.6974C129.733 24.9176 128.829 24.5277 127.707 24.5277C126.585 24.5277 125.682 24.9176 124.997 25.6974C124.312 26.4771 123.97 27.6658 123.97 29.2634C123.97 30.8611 124.303 32.0593 124.969 32.8581C125.653 33.6378 126.566 34.0277 127.707 34.0277ZM139.664 36.4812V25.7544C139.664 25.1458 139.645 24.5277 139.607 23.9001C139.588 23.2724 139.541 22.6638 139.465 22.0742H142.916L143.316 26.0112H142.745C142.936 25.0602 143.249 24.2709 143.687 23.6433C144.143 23.0157 144.695 22.5497 145.341 22.2454C145.988 21.9411 146.692 21.7889 147.453 21.7889C147.795 21.7889 148.071 21.808 148.28 21.846C148.489 21.865 148.698 21.9126 148.908 21.9886L148.879 25.1268C148.518 24.9746 148.204 24.8795 147.938 24.8415C147.69 24.8035 147.376 24.7844 146.996 24.7844C146.178 24.7844 145.484 24.9556 144.913 25.298C144.362 25.6403 143.944 26.1158 143.658 26.7244C143.392 27.333 143.259 28.0272 143.259 28.807V36.4812H139.664ZM151.748 36.4812V15.4841H155.314V28.2079H155.371L161.22 22.0742H165.528L158.253 29.6914L158.281 28.2649L166.041 36.4812H161.619L155.371 30.0337H155.314V36.4812H151.748Z" fill="white"/>
</svg>
